<svg width="154" height="47" viewBox="0 0 154 47" fill="none" xmlns="http://www.w3.org/2000/svg">
<g clip-path="url(#clip0_1228_558)">
<path fill-rule="evenodd" clip-rule="evenodd" d="M95.4825 36.4892C86.5878 43.0431 73.6502 46.5349 62.4915 46.5349C46.8585 46.5349 32.8427 40.7868 22.1692 31.2245C21.3606 30.4725 22.0614 29.4518 23.0856 30.0427C34.5678 36.7041 48.7452 40.6794 63.4079 40.6794C73.2728 40.6794 84.162 38.638 94.1887 34.3941C95.6981 33.8031 96.938 35.4148 95.4825 36.4892Z" fill="#CFCFDE"/>
<path fill-rule="evenodd" clip-rule="evenodd" d="M99.2021 32.2454C98.07 30.795 91.6551 31.5471 88.7981 31.9231C87.9356 32.0306 87.7739 31.2785 88.5825 30.7413C93.7036 27.142 102.059 28.2164 103.029 29.3982C104 30.5801 102.76 38.9605 97.9622 42.9358C97.2075 43.5268 96.5067 43.2044 96.8302 42.3986C97.9083 39.7126 100.334 33.7496 99.2021 32.2454Z" fill="#CFCFDE"/>
<path fill-rule="evenodd" clip-rule="evenodd" d="M88.9598 5.49261V2.00077C88.9598 1.46356 89.3372 1.14123 89.8223 1.14123H105.455C105.94 1.14123 106.372 1.51728 106.372 2.00077V4.9554C106.372 5.43889 105.94 6.08354 105.186 7.15795L97.0998 18.6542C100.119 18.6004 103.299 19.0302 105.994 20.5344C106.587 20.8567 106.749 21.3939 106.803 21.8774V25.5841C106.803 26.1213 106.264 26.7123 105.671 26.3899C100.873 23.8651 94.4583 23.5965 89.1755 26.4437C88.6364 26.7123 88.0434 26.1751 88.0434 25.6378V22.0923C88.0434 21.5551 88.0434 20.5881 88.6364 19.7286L98.0162 6.35214H89.8763C89.3911 6.35214 88.9598 5.97609 88.9598 5.49261ZM31.9803 27.142H27.2365C26.8053 27.0883 26.4279 26.766 26.374 26.3362V2.05449C26.374 1.571 26.8053 1.19496 27.2904 1.19496H31.7108C32.1959 1.19496 32.5194 1.571 32.5733 2.00077V5.17028H32.6811C33.8132 2.1082 36.0233 0.65775 38.9343 0.65775C41.8992 0.65775 43.7859 2.1082 45.0797 5.17028C46.2117 2.1082 48.8532 0.65775 51.6563 0.65775C53.6509 0.65775 55.8071 1.46356 57.1548 3.34378C58.6642 5.38517 58.3408 8.33981 58.3408 10.9721V26.3362C58.3408 26.8197 57.9095 27.1957 57.4244 27.1957H52.7345C52.2493 27.142 51.8719 26.766 51.8719 26.3362V13.4433C51.8719 12.4226 51.9798 9.84397 51.7641 8.877C51.3868 7.26538 50.3625 6.7819 48.961 6.7819C47.8289 6.7819 46.5891 7.534 46.1039 8.76957C45.6187 10.0051 45.6727 12.0465 45.6727 13.4433V26.3362C45.6727 26.8197 45.2414 27.1957 44.7562 27.1957H40.0124C39.5273 27.142 39.1499 26.766 39.1499 26.3362V13.4433C39.1499 10.7572 39.5812 6.72818 36.239 6.72818C32.8428 6.72818 32.9506 10.5961 32.9506 13.4433V26.3362C32.8967 26.766 32.5194 27.142 31.9803 27.142ZM119.848 0.65775C126.91 0.65775 130.738 6.67446 130.738 14.3565C130.738 21.77 126.533 27.6792 119.848 27.6792C112.948 27.6792 109.175 21.6625 109.175 14.1416C109.121 6.56702 112.948 0.65775 119.848 0.65775ZM119.848 5.65376C116.345 5.65376 116.129 10.4349 116.129 13.3895C116.129 16.3442 116.075 22.6832 119.795 22.6832C123.46 22.6832 123.676 17.5798 123.676 14.464C123.676 12.4226 123.568 9.95143 122.975 8.01748C122.436 6.29842 121.358 5.65376 119.848 5.65376ZM139.848 27.142H135.104C134.619 27.0883 134.242 26.7123 134.242 26.2825V1.94704C134.295 1.51728 134.673 1.14123 135.158 1.14123H139.578C140.01 1.14123 140.333 1.46357 140.441 1.83961V5.54633H140.549C141.896 2.21565 143.729 0.65775 147.017 0.65775C149.12 0.65775 151.222 1.40983 152.57 3.50494C153.81 5.43888 153.81 8.71584 153.81 11.0796V26.3899C153.756 26.8197 153.378 27.142 152.893 27.142H148.15C147.718 27.0883 147.341 26.766 147.287 26.3899V13.1747C147.287 10.4886 147.61 6.62074 144.322 6.62074C143.19 6.62074 142.112 7.37284 141.573 8.55469C140.926 10.0589 140.818 11.5093 140.818 13.1747V26.2825C140.764 26.766 140.333 27.142 139.848 27.142ZM76.5074 15.5384C76.5074 17.3649 76.5613 18.9228 75.6449 20.5881C74.8902 21.9311 73.7042 22.7369 72.3565 22.7369C70.5237 22.7369 69.4456 21.3402 69.4456 19.2988C69.4456 15.2698 73.0573 14.5177 76.5074 14.5177V15.5384ZM81.3051 27.0883C80.9816 27.3569 80.5504 27.4106 80.173 27.1957C78.6097 25.9064 78.2863 25.2618 77.4238 24.0262C74.8362 26.6585 72.9495 27.4643 69.6073 27.4643C65.6182 27.4643 62.4916 24.9932 62.4916 20.1046C62.4916 16.2367 64.594 13.6581 67.5588 12.3688C70.1464 11.2407 73.7581 11.0258 76.5074 10.7035V10.1126C76.5074 8.98445 76.6152 7.64144 75.9144 6.67447C75.3214 5.81494 74.2433 5.43888 73.273 5.43888C71.4401 5.43888 69.8229 6.35214 69.4456 8.28609C69.3378 8.71585 69.0682 9.14561 68.637 9.14561L64.0549 8.66212C63.6775 8.55468 63.2463 8.28608 63.3541 7.69516C64.4322 2.10821 69.4456 0.442871 73.9737 0.442871C76.2917 0.442871 79.3105 1.03379 81.1434 2.80658C83.4613 4.9554 83.2457 7.85632 83.2457 10.9721V18.3318C83.2457 20.5344 84.1621 21.5014 85.0246 22.7369C85.3481 23.1667 85.402 23.7039 85.0246 23.9725C84.0004 24.7783 82.2754 26.2825 81.3051 27.0883ZM14.245 15.5384C14.245 17.3649 14.2989 18.9228 13.3825 20.5881C12.6278 21.9311 11.4418 22.7369 10.0941 22.7369C8.26131 22.7369 7.18318 21.3402 7.18318 19.2988C7.18318 15.2698 10.7949 14.5177 14.245 14.5177V15.5384ZM18.9888 27.0883C18.6653 27.3569 18.2341 27.4106 17.8567 27.1957C16.2934 25.9064 15.97 25.2618 15.1075 24.0262C12.52 26.6585 10.6332 27.4643 7.29099 27.4643C3.30189 27.4643 0.175293 24.9932 0.175293 20.1046C0.175293 16.2367 2.27766 13.6581 5.24253 12.3688C7.83006 11.2407 11.4418 11.0258 14.1911 10.7035V10.1126C14.1911 8.98445 14.2989 7.64144 13.5981 6.67447C13.0051 5.81494 11.927 5.43888 10.9567 5.43888C9.12383 5.43888 7.50662 6.35214 7.12927 8.28609C7.02146 8.71585 6.75192 9.14561 6.32067 9.14561L1.73859 8.66212C1.36124 8.55468 0.929992 8.28608 1.03781 7.69516C2.11594 2.10821 7.12928 0.442871 11.6574 0.442871C13.9754 0.442871 16.9942 1.03379 18.8271 2.80658C21.1451 4.9554 20.9294 7.85632 20.9294 10.9721V18.3318C20.9294 20.5344 21.8458 21.5014 22.7083 22.7369C23.0318 23.1667 23.0857 23.7039 22.7083 23.9725C21.6841 24.7783 19.9591 26.2825 18.9888 27.0883Z" fill="#CFCFDE"/>
</g>
<defs>
<clipPath id="clip0_1228_558">
<rect width="153.641" height="46.0923" fill="white" transform="translate(153.813 46.5352) rotate(-180)"/>
</clipPath>
</defs>
</svg>
