<svg width="169" height="56" viewBox="0 0 169 56" fill="none" xmlns="http://www.w3.org/2000/svg">
<g clip-path="url(#clip0_1228_545)">
<path d="M20.7271 0.925781H22.2238C27.4197 1.03825 32.5309 3.11896 36.202 6.80237C34.8465 8.18014 33.4628 9.50167 32.1356 10.8794C30.0742 9.02367 27.5891 7.58967 24.8782 7.08355C20.8683 6.24002 16.5478 6.9992 13.1874 9.27673C9.51632 11.6667 7.03131 15.7157 6.49477 20.0458C5.90175 24.3197 7.11602 28.8185 9.91166 32.1364C12.5943 35.3699 16.689 37.3944 20.9248 37.535C24.8782 37.7599 29.0011 36.5509 31.8814 33.7953C34.1405 31.8552 35.1854 28.9029 35.5243 26.0349C30.8366 26.0349 26.149 26.063 21.4613 26.0349V20.2426H41.2002C42.2168 26.4566 40.7484 33.4579 36.0043 37.9005C32.8416 41.0497 28.4646 42.9055 24.0028 43.271C19.6823 43.6928 15.2206 42.8773 11.3801 40.7966C6.77716 38.3504 3.10611 34.2171 1.29883 29.3527C-0.395498 24.882 -0.423737 19.8209 1.15764 15.322C2.59781 11.2168 5.36522 7.58967 8.92331 5.05908C12.3402 2.55661 16.4913 1.17884 20.7271 0.925781Z" fill="#CFCFDE"/>
<path d="M133.965 2.38672H140.008V42.5388C138.003 42.5388 135.97 42.5669 133.965 42.5106C133.993 29.1547 133.965 15.7707 133.965 2.38672Z" fill="#CFCFDE"/>
<path d="M54.6422 16.3051C58.3697 15.6021 62.4079 16.3894 65.4859 18.6107C68.2815 20.579 70.23 23.6719 70.823 27.046C71.5855 30.9544 70.6253 35.2283 68.0839 38.3212C65.3447 41.7797 60.8547 43.6355 56.4777 43.3543C52.4678 43.1293 48.5708 41.133 46.1988 37.8713C43.5161 34.2723 42.8666 29.3236 44.335 25.1059C45.8034 20.579 49.9545 17.1205 54.6422 16.3051ZM55.4893 21.6474C53.9644 22.0411 52.5525 22.9127 51.5359 24.1499C48.7967 27.4116 48.9662 32.7258 51.9877 35.7625C53.7103 37.5058 56.3083 38.3212 58.7086 37.8432C60.9394 37.4496 62.8879 35.9593 63.961 33.9911C65.8247 30.6451 65.2882 26.0338 62.4361 23.4189C60.6006 21.7318 57.9179 21.0289 55.4893 21.6474Z" fill="#CFCFDE"/>
<path d="M84.5752 16.3052C88.8392 15.4898 93.4986 16.6707 96.6896 19.6512C101.886 24.2906 102.45 32.979 98.0168 38.3213C95.3342 41.6955 90.9854 43.5512 86.6931 43.3544C82.5985 43.2419 78.5603 41.2175 76.1318 37.8715C73.3926 34.188 72.7996 29.1269 74.3527 24.8249C75.9059 20.4385 79.9723 17.0925 84.5752 16.3052ZM85.4223 21.6476C83.8975 22.0412 82.4855 22.9129 81.4689 24.1219C78.758 27.3273 78.871 32.5572 81.7795 35.622C83.5021 37.4497 86.1848 38.3495 88.6698 37.8433C90.8724 37.4216 92.8491 35.9595 93.9222 33.9912C95.7577 30.6171 95.2212 26.0058 92.3408 23.3909C90.5053 21.7038 87.8226 21.029 85.4223 21.6476Z" fill="#CFCFDE"/>
<path d="M109.962 17.9359C113.21 15.9115 117.53 15.3491 121.032 17.0924C122.133 17.5704 123.037 18.3858 123.912 19.2012C123.94 18.442 123.912 17.6548 123.94 16.8675C125.832 16.8956 127.724 16.8675 129.645 16.8956V41.6953C129.616 45.435 128.656 49.3996 125.945 52.127C122.98 55.1356 118.434 56.0635 114.339 55.4449C109.962 54.7982 106.15 51.6209 104.456 47.6001C106.15 46.7846 107.929 46.1379 109.68 45.3788C110.668 47.6844 112.673 49.6526 115.186 50.1025C117.7 50.5524 120.608 49.9338 122.246 47.8531C123.997 45.7162 123.997 42.7919 123.912 40.177C122.613 41.4423 121.116 42.567 119.309 42.9888C115.384 44.0854 111.063 42.7357 108.042 40.0926C104.992 37.4496 103.185 33.3725 103.354 29.3236C103.439 24.7404 106.037 20.3259 109.962 17.9359ZM115.808 21.535C114.085 21.8162 112.475 22.7722 111.374 24.0937C108.72 27.2429 108.72 32.2759 111.402 35.3689C112.927 37.1965 115.384 38.2088 117.756 37.9557C119.987 37.7308 122.048 36.3249 123.15 34.3848C125.013 31.095 124.703 26.6243 122.189 23.7563C120.636 21.9849 118.151 21.1132 115.808 21.535Z" fill="#CFCFDE"/>
<path d="M147.265 19.3699C150.654 16.2207 155.878 15.1523 160.227 16.8112C164.35 18.3577 166.976 22.266 168.303 26.2869C162.176 28.8174 156.076 31.3199 149.948 33.8505C150.795 35.4532 152.094 36.9153 153.845 37.5058C156.302 38.3775 159.239 38.0682 161.3 36.4373C162.119 35.8188 162.769 35.0033 163.39 34.216C164.943 35.2564 166.496 36.2686 168.049 37.309C165.847 40.5988 162.147 42.9044 158.166 43.2699C153.76 43.8042 149.073 42.1171 146.221 38.6868C141.533 33.2882 141.985 24.2343 147.265 19.3699ZM150.287 24.5717C149.327 25.9494 148.932 27.6365 148.96 29.2954C153.054 27.6084 157.149 25.9213 161.244 24.2061C160.566 22.6316 158.928 21.6756 157.262 21.4225C154.579 20.9445 151.784 22.3785 150.287 24.5717Z" fill="#CFCFDE"/>
</g>
<defs>
<clipPath id="clip0_1228_545">
<rect width="168.303" height="54.6985" fill="white" transform="translate(0 0.919922)"/>
</clipPath>
</defs>
</svg>
