<svg width="132" height="52" viewBox="0 0 132 52" fill="none" xmlns="http://www.w3.org/2000/svg">
<path d="M104.461 16.833V0.931152H107.705V14.6007C106.807 15.0522 105.584 15.905 104.461 16.833ZM98.8199 21.6236C99.8183 20.4197 100.842 19.2158 102.065 18.1874V0.931152H98.8199V21.6236ZM61.2319 34.2648C61.2319 38.5036 62.9041 42.5418 65.9741 45.6268C69.0191 48.6868 73.0374 50.3924 77.2804 50.3924C79.0775 50.3924 80.9244 50.0162 82.2223 49.364V46.1034C80.6998 46.7555 78.8528 47.1318 77.2804 47.1318C70.3419 47.1318 64.5015 41.2626 64.5015 34.2899V31.3553C64.5015 24.3826 70.3668 18.5135 77.2804 18.5135C80.7248 18.5135 83.9444 19.8428 86.3405 22.2506C88.7365 24.6585 90.0594 27.894 90.0594 31.3553V50.4175H93.304V30.7283C93.1043 26.5647 91.3323 22.677 88.3372 19.7676C85.3172 16.8581 81.3986 15.2528 77.2804 15.2528C73.0624 15.2528 69.044 16.9333 65.9741 20.0184C62.9291 23.0783 61.2319 27.1165 61.2319 31.3804V34.2648ZM109.802 26.4393C111.274 24.9595 113.171 24.1318 115.043 24.1318C119.062 24.1318 122.181 27.2921 122.181 31.3052V34.2397C122.181 38.2779 119.037 41.4131 115.043 41.4131C113.096 41.4131 111.224 40.3346 109.752 38.4033C108.454 36.6977 107.605 34.3651 107.481 32.2834L104.86 35.544C105.384 38.002 106.657 40.3848 108.479 42.0402C110.351 43.7457 112.697 44.6988 115.043 44.6988C120.784 44.6988 125.451 40.0085 125.451 34.2648V31.3302C125.451 28.5963 124.353 25.9878 122.356 24.0064C120.359 21.9998 117.764 20.8962 115.043 20.8962C113.321 20.8962 110.601 21.5233 107.356 24.4578C106.482 25.3357 104.436 27.3924 103.188 28.8472C101.091 31.1547 98.0712 34.5909 95.4754 38.0772V43.1688C98.3457 39.4567 99.993 37.375 102.714 34.2397C105.11 31.3804 108.105 27.9442 109.802 26.4393ZM33.1282 20.2943V16.4317C30.1831 14.8515 26.9883 14.1492 22.7453 14.1492C18.4025 14.1492 14.2843 15.7545 11.1644 18.6389C8.0196 21.5484 6.29744 25.3608 6.29744 29.424V30.4775C6.29744 38.9049 13.0114 45.7523 21.2977 45.7523C28.0116 45.7523 30.7821 43.5451 31.4809 42.8428V33.0358H20.499V36.2964H28.4359V41.2125H28.411C27.3877 41.6138 25.2662 42.4665 21.2977 42.4665C18.1529 42.4665 15.1828 41.2375 12.9864 38.9802C10.7651 36.7228 9.56705 33.713 9.56705 30.4524V29.3989C9.56705 22.9028 15.6071 17.3848 22.7703 17.3848C27.6872 17.4099 30.6323 18.2376 33.1282 20.2943ZM56.7892 24.1318C58.0122 24.1318 59.0605 24.3324 59.9091 24.7337C60.3084 23.7305 60.7327 22.8777 61.3317 21.8744C60.4582 21.2474 58.3367 20.8461 56.7892 20.8461C50.874 20.8461 46.4063 25.3357 46.4063 31.3052V50.3673H49.651V31.3052C49.651 27.0914 52.5712 24.1318 56.7892 24.1318ZM0.656738 29.424V30.4775C0.656738 36.1459 2.8032 41.4131 6.67182 45.351C10.5404 49.2637 15.7319 51.4207 21.2728 51.4207C25.7404 51.4207 29.6839 50.4175 33.0284 48.4109C35.7738 46.7555 36.9968 45.1001 37.0967 44.9496V27.3924H20.499V30.653H33.852V43.9715C32.2796 45.5516 28.5607 48.1852 21.2977 48.1852C16.5555 48.1852 12.1628 46.3542 8.91812 43.0434C5.69843 39.7577 3.92635 35.2932 3.92635 30.5025V29.4491C3.92635 24.9093 5.94802 20.3946 9.49217 17.0587C13.1112 13.6476 17.8284 11.7665 22.7703 11.7665C27.3877 11.7665 30.5824 12.4688 33.1532 14.0489V10.3619C30.4576 9.20813 27.2379 8.7065 22.7453 8.7065C10.7651 8.7065 0.656738 18.1874 0.656738 29.424ZM87.6384 50.3673V31.3052C87.6384 25.436 83.0709 20.8461 77.2305 20.8461C74.51 20.8461 71.9143 21.9497 69.9176 23.9562C67.9209 25.9627 66.8227 28.5713 66.8227 31.2801V34.2146C66.8227 39.8831 71.5898 44.6487 77.2056 44.6487C78.753 44.6487 80.8495 44.2724 82.1474 43.1939V39.8079C80.8745 40.8362 79.0525 41.4382 77.2056 41.4382C73.2121 41.4382 70.0673 38.2779 70.0673 34.2648V31.3302C70.0673 27.2921 73.2121 24.1569 77.2056 24.1569C81.2239 24.1569 84.3438 27.3172 84.3438 31.3302V50.3924H87.6384V50.3673ZM56.7892 18.4633C58.9856 18.4633 60.9074 18.9399 62.6296 19.918C63.4283 18.8897 64.2519 18.0871 64.8759 17.46C63.0539 16.0555 59.959 15.2027 56.8142 15.2027C52.2966 15.2027 48.2034 16.833 45.2832 19.8177C42.388 22.7523 40.7906 26.8406 40.7906 31.3302V50.3924H44.0352V31.3302C44.0103 23.7556 49.2516 18.4633 56.7892 18.4633ZM126.35 19.9682C123.305 16.9082 119.286 15.2027 115.043 15.2027C111.948 15.2027 108.853 16.3564 107.131 17.5102C103.587 19.8679 100.692 22.4513 95.4505 29.2485V34.1394C99.8932 28.3204 104.086 23.7556 107.281 21.2223C109.378 19.5418 112.348 18.4884 115.043 18.4884C121.982 18.4884 127.822 24.3826 127.822 31.3302V34.2648C127.822 37.701 126.474 40.9366 124.028 43.3695C121.607 45.7773 118.413 47.1067 115.043 47.1067C109.353 47.1067 104.336 43.1688 102.988 37.8264L100.692 40.6105C102.364 46.2288 108.404 50.3673 115.043 50.3673C119.286 50.3673 123.28 48.6617 126.35 45.6018C129.395 42.5167 131.092 38.5036 131.092 34.2397V31.3052C131.092 27.0663 129.395 23.0282 126.35 19.9682Z" fill="#CFCFDE"/>
</svg>
