<svg width="150" height="86" viewBox="0 0 150 86" fill="none" xmlns="http://www.w3.org/2000/svg">
<path d="M37.2259 5.22321C39.5761 2.8378 43.4239 2.8378 45.7741 5.22321L78.8513 38.7966C81.1525 41.1323 81.1525 44.8827 78.8513 47.2184L45.7741 80.7918C43.4239 83.1772 39.5761 83.1772 37.2259 80.7918L4.14871 47.2184C1.84751 44.8827 1.84752 41.1323 4.14871 38.7966L37.2259 5.22321Z" fill="#F48C06"/>
<path d="M32.112 53.364C30.4693 53.364 28.9973 53.0973 27.696 52.564C26.3947 52.0307 25.3493 51.2413 24.56 50.196C23.792 49.1507 23.3867 47.892 23.344 46.42H29.168C29.2533 47.252 29.5413 47.892 30.032 48.34C30.5227 48.7667 31.1627 48.98 31.952 48.98C32.7627 48.98 33.4027 48.7987 33.872 48.436C34.3413 48.052 34.576 47.5293 34.576 46.868C34.576 46.3133 34.384 45.8547 34 45.492C33.6373 45.1293 33.1787 44.8307 32.624 44.596C32.0907 44.3613 31.3227 44.0947 30.32 43.796C28.8693 43.348 27.6853 42.9 26.768 42.452C25.8507 42.004 25.0613 41.3427 24.4 40.468C23.7387 39.5933 23.408 38.452 23.408 37.044C23.408 34.9533 24.1653 33.3213 25.68 32.148C27.1947 30.9533 29.168 30.356 31.6 30.356C34.0747 30.356 36.0693 30.9533 37.584 32.148C39.0987 33.3213 39.9093 34.964 40.016 37.076H34.096C34.0533 36.3507 33.7867 35.7853 33.296 35.38C32.8053 34.9533 32.176 34.74 31.408 34.74C30.7467 34.74 30.2133 34.9213 29.808 35.284C29.4027 35.6253 29.2 36.1267 29.2 36.788C29.2 37.5133 29.5413 38.0787 30.224 38.484C30.9067 38.8893 31.9733 39.3267 33.424 39.796C34.8747 40.2867 36.048 40.756 36.944 41.204C37.8613 41.652 38.6507 42.3027 39.312 43.156C39.9733 44.0093 40.304 45.108 40.304 46.452C40.304 47.732 39.9733 48.8947 39.312 49.94C38.672 50.9853 37.7333 51.8173 36.496 52.436C35.2587 53.0547 33.7973 53.364 32.112 53.364ZM55.8635 53.14L50.4235 45.652V53.14H44.9515V29.46H50.4235V42.548L55.8315 35.284H62.5835L55.1595 44.244L62.6475 53.14H55.8635ZM68.7648 33.428C67.8048 33.428 67.0154 33.1507 66.3968 32.596C65.7994 32.02 65.5008 31.316 65.5008 30.484C65.5008 29.6307 65.7994 28.9267 66.3968 28.372C67.0154 27.796 67.8048 27.508 68.7648 27.508C69.7034 27.508 70.4714 27.796 71.0688 28.372C71.6874 28.9267 71.9968 29.6307 71.9968 30.484C71.9968 31.316 71.6874 32.02 71.0688 32.596C70.4714 33.1507 69.7034 33.428 68.7648 33.428ZM71.4848 35.284V53.14H66.0128V35.284H71.4848ZM82.2023 29.46V53.14H76.7303V29.46H82.2023ZM92.9197 29.46V53.14H87.4477V29.46H92.9197ZM100.917 33.428C99.9573 33.428 99.1679 33.1507 98.5493 32.596C97.9519 32.02 97.6533 31.316 97.6533 30.484C97.6533 29.6307 97.9519 28.9267 98.5493 28.372C99.1679 27.796 99.9573 27.508 100.917 27.508C101.856 27.508 102.624 27.796 103.221 28.372C103.84 28.9267 104.149 29.6307 104.149 30.484C104.149 31.316 103.84 32.02 103.221 32.596C102.624 33.1507 101.856 33.428 100.917 33.428ZM103.637 35.284V53.14H98.1653V35.284H103.637ZM119.763 35.092C121.853 35.092 123.517 35.7747 124.755 37.14C126.013 38.484 126.643 40.34 126.643 42.708V53.14H121.203V43.444C121.203 42.2493 120.893 41.3213 120.275 40.66C119.656 39.9987 118.824 39.668 117.779 39.668C116.733 39.668 115.901 39.9987 115.283 40.66C114.664 41.3213 114.355 42.2493 114.355 43.444V53.14H108.883V35.284H114.355V37.652C114.909 36.8627 115.656 36.244 116.595 35.796C117.533 35.3267 118.589 35.092 119.763 35.092ZM148.557 43.924C148.557 44.436 148.525 44.9693 148.461 45.524H136.077C136.163 46.6333 136.515 47.4867 137.133 48.084C137.773 48.66 138.552 48.948 139.469 48.948C140.835 48.948 141.784 48.372 142.317 47.22H148.141C147.843 48.3933 147.299 49.4493 146.509 50.388C145.741 51.3267 144.771 52.0627 143.597 52.596C142.424 53.1293 141.112 53.396 139.661 53.396C137.912 53.396 136.355 53.0227 134.989 52.276C133.624 51.5293 132.557 50.4627 131.789 49.076C131.021 47.6893 130.637 46.068 130.637 44.212C130.637 42.356 131.011 40.7347 131.757 39.348C132.525 37.9613 133.592 36.8947 134.957 36.148C136.323 35.4013 137.891 35.028 139.661 35.028C141.389 35.028 142.925 35.3907 144.269 36.116C145.613 36.8413 146.659 37.876 147.405 39.22C148.173 40.564 148.557 42.132 148.557 43.924ZM142.957 42.484C142.957 41.5453 142.637 40.7987 141.997 40.244C141.357 39.6893 140.557 39.412 139.597 39.412C138.68 39.412 137.901 39.6787 137.261 40.212C136.643 40.7453 136.259 41.5027 136.109 42.484H142.957Z" fill="black"/>
</svg>
