<svg xmlns="http://www.w3.org/2000/svg" width="146" height="71" viewBox="0 0 146 71" fill="none">
<path d="M78.8184 0.181655C78.7539 0.199934 75.6836 1.94863 71.9922 4.0629C68.3008 6.18327 65.1426 7.99289 64.9727 8.09038C64.4043 8.40722 64.4336 8.22443 64.4336 11.6L64.4277 14.549L64.0234 14.7561C63.3086 15.1095 62.7285 15.8833 62.5645 16.6998C62.5293 16.8765 62.5 17.5224 62.5 18.1317C62.5 19.3868 62.5469 19.5635 62.916 19.7707C63.1035 19.8743 63.2676 19.8803 65.2949 19.8682L67.4688 19.8499L67.627 19.6976C67.9258 19.4051 67.9492 19.2954 67.9492 18.156C67.9492 16.9009 67.9023 16.584 67.627 16.0052C67.3809 15.4751 66.877 14.9633 66.3672 14.7196L66.0156 14.549V12.7211V10.8993L67.3164 12.2458C68.3066 13.2633 68.6699 13.5985 68.8047 13.6228C69.1387 13.6899 69.3848 13.5619 69.9238 13.044C72.6016 10.4849 76.1816 9.22368 79.7617 9.58926C82.5449 9.86954 85.1172 11.0638 87.1855 13.044C87.4961 13.3426 87.7832 13.5619 87.9062 13.5985C88.334 13.7203 88.4043 13.6655 90.4551 11.5817C92.3594 9.6441 92.5 9.47959 92.5 9.09573C92.5 8.69968 92.4238 8.64484 87.373 5.39727C84.7012 3.67904 81.8008 1.82067 80.9395 1.26012C79.5859 0.388817 79.0996 0.114632 78.9648 0.145097C78.9473 0.15119 78.8828 0.169469 78.8184 0.181655ZM84.707 5.61053C87.8184 7.61512 90.3613 9.27852 90.3613 9.31507C90.3613 9.35163 89.8516 9.89391 89.2363 10.5215L88.1055 11.667L87.5664 11.2161C85.4277 9.42475 83.1016 8.39503 80.3125 7.99289C79.5215 7.87712 77.4062 7.88931 76.6035 8.01726C73.8613 8.44987 71.6523 9.44912 69.543 11.2161L68.9922 11.6731L67.7559 10.3874C67.0762 9.68065 66.5312 9.08963 66.543 9.07745C66.5605 9.05917 68.7871 7.77964 71.4941 6.22592C74.2012 4.6722 76.9727 3.08193 77.6465 2.69197C78.3262 2.30202 78.918 1.97909 78.9648 1.973C79.0117 1.973 81.5957 3.61202 84.707 5.61053ZM65.7109 16.2185C66.209 16.4805 66.3672 16.8338 66.3672 17.6564V18.2352H65.2246H64.082V17.6564C64.082 16.846 64.2871 16.4073 64.7559 16.188C65.0137 16.0722 65.459 16.0844 65.7109 16.2185Z" fill="white"/>
<path d="M77.405 11.9655C75.3074 12.1909 73.1629 13.1902 71.5867 14.6769C71.3465 14.9023 71.1004 15.1704 71.0418 15.274C70.7429 15.7858 71.1238 16.4682 71.7097 16.4682C71.9793 16.4682 72.1902 16.3586 72.4246 16.1027C72.6765 15.8224 73.4734 15.1887 73.948 14.884C76.6375 13.1658 80.1883 13.111 82.9129 14.7378C83.4812 15.079 84.1492 15.5908 84.5828 16.0173C84.9754 16.4012 85.0984 16.4682 85.3855 16.4682C85.9656 16.4682 86.3523 15.7858 86.0535 15.274C85.9011 15.0181 85.1804 14.3479 84.5535 13.8726C83.9265 13.4095 82.5965 12.7088 81.8582 12.4529C80.4461 11.9777 78.8875 11.8071 77.405 11.9655Z" fill="white"/>
<path d="M77.6064 15.987C77.0967 16.0662 76.4345 16.2672 75.9189 16.4988C75.1045 16.8643 73.9912 17.7113 73.792 18.1195C73.5869 18.5216 73.7627 19.0822 74.1435 19.2467C74.542 19.4173 74.7295 19.3442 75.3857 18.7654C75.8252 18.3693 76.7392 17.8758 77.3076 17.7174C77.9111 17.5529 78.9131 17.5346 79.5869 17.6747C80.331 17.8392 81.1982 18.2718 81.749 18.7654C82.4111 19.3503 82.6103 19.4234 83.0029 19.2284C83.3838 19.0395 83.5478 18.5216 83.3428 18.1195C83.1553 17.7356 82.0595 16.8887 81.292 16.5292C80.1845 16.0113 78.7959 15.8042 77.6064 15.987Z" fill="white"/>
<path d="M77.9904 19.8438C76.9064 20.2459 76.6076 21.7448 77.4514 22.5552C77.7971 22.8842 78.0725 23 78.5353 23C79.7365 23.0061 80.4865 21.6839 79.8947 20.5871C79.5197 19.8925 78.717 19.5757 77.9904 19.8438Z" fill="white"/>
<path d="M32.896 25.536L27.04 48H20.416L16.832 33.216L13.12 48H6.496L0.8 25.536H6.656L9.888 41.888L13.888 25.536H19.904L23.744 41.888L27.008 25.536H32.896ZM52.4722 38.784C52.4722 39.296 52.4403 39.8293 52.3763 40.384H39.9923C40.0776 41.4933 40.4296 42.3467 41.0483 42.944C41.6883 43.52 42.4669 43.808 43.3843 43.808C44.7496 43.808 45.6989 43.232 46.2323 42.08H52.0563C51.7576 43.2533 51.2136 44.3093 50.4243 45.248C49.6563 46.1867 48.6856 46.9227 47.5123 47.456C46.3389 47.9893 45.0269 48.256 43.5763 48.256C41.8269 48.256 40.2696 47.8827 38.9043 47.136C37.5389 46.3893 36.4723 45.3227 35.7043 43.936C34.9363 42.5493 34.5523 40.928 34.5523 39.072C34.5523 37.216 34.9256 35.5947 35.6723 34.208C36.4403 32.8213 37.5069 31.7547 38.8723 31.008C40.2376 30.2613 41.8056 29.888 43.5763 29.888C45.3043 29.888 46.8403 30.2507 48.1843 30.976C49.5283 31.7013 50.5736 32.736 51.3203 34.08C52.0883 35.424 52.4722 36.992 52.4722 38.784ZM46.8723 37.344C46.8723 36.4053 46.5523 35.6587 45.9123 35.104C45.2723 34.5493 44.4723 34.272 43.5123 34.272C42.5949 34.272 41.8163 34.5387 41.1763 35.072C40.5576 35.6053 40.1736 36.3627 40.0243 37.344H46.8723Z" fill="white"/>
<path d="M60.831 43.776H67.999V48H55.359V25.536H60.831V43.776ZM87.441 38.784C87.441 39.296 87.409 39.8293 87.345 40.384H74.961C75.0463 41.4933 75.3983 42.3467 76.017 42.944C76.657 43.52 77.4357 43.808 78.353 43.808C79.7183 43.808 80.6677 43.232 81.201 42.08H87.025C86.7263 43.2533 86.1823 44.3093 85.393 45.248C84.625 46.1867 83.6543 46.9227 82.481 47.456C81.3077 47.9893 79.9957 48.256 78.545 48.256C76.7957 48.256 75.2383 47.8827 73.873 47.136C72.5077 46.3893 71.441 45.3227 70.673 43.936C69.905 42.5493 69.521 40.928 69.521 39.072C69.521 37.216 69.8943 35.5947 70.641 34.208C71.409 32.8213 72.4757 31.7547 73.841 31.008C75.2063 30.2613 76.7743 29.888 78.545 29.888C80.273 29.888 81.809 30.2507 83.153 30.976C84.497 31.7013 85.5423 32.736 86.289 34.08C87.057 35.424 87.441 36.992 87.441 38.784ZM81.841 37.344C81.841 36.4053 81.521 35.6587 80.881 35.104C80.241 34.5493 79.441 34.272 78.481 34.272C77.5637 34.272 76.785 34.5387 76.145 35.072C75.5263 35.6053 75.1423 36.3627 74.993 37.344H81.841ZM89.2398 39.04C89.2398 37.2053 89.5811 35.5947 90.2638 34.208C90.9678 32.8213 91.9171 31.7547 93.1118 31.008C94.3064 30.2613 95.6398 29.888 97.1118 29.888C98.3704 29.888 99.4691 30.144 100.408 30.656C101.368 31.168 102.104 31.84 102.616 32.672V30.144H108.088V48H102.616V45.472C102.082 46.304 101.336 46.976 100.376 47.488C99.4371 48 98.3384 48.256 97.0798 48.256C95.6291 48.256 94.3064 47.8827 93.1118 47.136C91.9171 46.368 90.9678 45.2907 90.2638 43.904C89.5811 42.496 89.2398 40.8747 89.2398 39.04ZM102.616 39.072C102.616 37.7067 102.232 36.6293 101.464 35.84C100.717 35.0507 99.7998 34.656 98.7118 34.656C97.6238 34.656 96.6958 35.0507 95.9278 35.84C95.1811 36.608 94.8078 37.6747 94.8078 39.04C94.8078 40.4053 95.1811 41.4933 95.9278 42.304C96.6958 43.0933 97.6238 43.488 98.7118 43.488C99.7998 43.488 100.717 43.0933 101.464 42.304C102.232 41.5147 102.616 40.4373 102.616 39.072ZM117.519 33.12C118.159 32.1387 118.959 31.3707 119.919 30.816C120.879 30.24 121.945 29.952 123.119 29.952V35.744H121.615C120.249 35.744 119.225 36.0427 118.543 36.64C117.86 37.216 117.519 38.24 117.519 39.712V48H112.047V30.144H117.519V33.12ZM136.614 29.952C138.705 29.952 140.369 30.6347 141.606 32C142.865 33.344 143.494 35.2 143.494 37.568V48H138.054V38.304C138.054 37.1093 137.745 36.1813 137.126 35.52C136.507 34.8587 135.675 34.528 134.63 34.528C133.585 34.528 132.753 34.8587 132.134 35.52C131.515 36.1813 131.206 37.1093 131.206 38.304V48H125.734V30.144H131.206V32.512C131.761 31.7227 132.507 31.104 133.446 30.656C134.385 30.1867 135.441 29.952 136.614 29.952Z" fill="#F48C06"/>
</svg>