<?xml version="1.0" standalone="no"?>
<!DOCTYPE svg PUBLIC "-//W3C//DTD SVG 20010904//EN"
 "http://www.w3.org/TR/2001/REC-SVG-20010904/DTD/svg10.dtd">
<svg version="1.0" xmlns="http://www.w3.org/2000/svg"
 width="512.000000pt" height="512.000000pt" viewBox="0 0 512.000000 512.000000"
 preserveAspectRatio="xMidYMid meet">

<g transform="translate(0.000000,512.000000) scale(0.100000,-0.100000)"
fill="#000000" stroke="none">
<path d="M2785 4433 c-11 -3 -535 -290 -1165 -637 -630 -348 -1169 -645 -1198
-661 -97 -52 -92 -22 -92 -576 l-1 -484 -69 -34 c-122 -58 -221 -185 -249
-319 -6 -29 -11 -135 -11 -235 0 -206 8 -235 71 -269 32 -17 60 -18 406 -16
l371 3 27 25 c51 48 55 66 55 253 0 206 -8 258 -55 353 -42 87 -128 171 -215
211 l-60 28 0 300 0 299 222 -221 c169 -167 231 -222 254 -226 57 -11 99 10
191 95 457 420 1068 627 1679 567 475 -46 914 -242 1267 -567 53 -49 102 -85
123 -91 73 -20 85 -11 435 331 325 318 349 345 349 408 0 65 -13 74 -875 607
-456 282 -951 587 -1098 679 -231 143 -314 188 -337 183 -3 -1 -14 -4 -25 -6z
m1005 -891 c531 -329 965 -602 965 -608 0 -6 -87 -95 -192 -198 l-193 -188
-92 74 c-365 294 -762 463 -1238 529 -135 19 -496 17 -633 -4 -468 -71 -845
-235 -1205 -525 l-94 -75 -211 211 c-116 116 -209 213 -207 215 3 3 383 213
845 468 462 255 935 516 1050 580 116 64 217 117 225 118 8 0 449 -269 980
-597z m-3242 -1741 c85 -43 112 -101 112 -236 l0 -95 -195 0 -195 0 0 95 c0
133 35 205 115 241 44 19 120 17 163 -5z"/>
<path d="M2545 2499 c-358 -37 -724 -201 -993 -445 -41 -37 -83 -81 -93 -98
-51 -84 14 -196 114 -196 46 0 82 18 122 60 43 46 179 150 260 200 459 282
1065 291 1530 24 97 -56 211 -140 285 -210 67 -63 88 -74 137 -74 99 0 165
112 114 196 -26 42 -149 152 -256 230 -107 76 -334 191 -460 233 -241 78 -507
106 -760 80z"/>
<path d="M2576 1839 c-87 -13 -200 -46 -288 -84 -139 -60 -329 -199 -363 -266
-35 -66 -5 -158 60 -185 68 -28 100 -16 212 79 75 65 231 146 328 172 103 27
274 30 389 7 127 -27 275 -98 369 -179 113 -96 147 -108 214 -76 65 31 93 116
58 182 -32 63 -219 202 -350 261 -189 85 -426 119 -629 89z"/>
<path d="M2647 1206 c-185 -66 -236 -312 -92 -445 59 -54 106 -73 185 -73 205
-1 333 216 232 396 -64 114 -201 166 -325 122z"/>
</g>
</svg>
