<svg width="683" height="683" viewBox="0 0 683 683" fill="none" xmlns="http://www.w3.org/2000/svg">
<g clip-path="url(#clip0_1909_598)">
<path d="M371.333 91.6C369.867 92 300 130.267 216 176.533C132 222.933 60.1333 262.533 56.2667 264.667C43.3333 271.6 44 267.6 44 341.467L43.8667 406L34.6667 410.533C18.4 418.267 5.2 435.2 1.46667 453.067C0.666667 456.933 0 471.067 0 484.4C0 511.867 1.06667 515.733 9.46667 520.267C13.7333 522.533 17.4667 522.667 63.6 522.4L113.067 522L116.667 518.667C123.467 512.267 124 509.867 124 484.933C124 457.467 122.933 450.533 116.667 437.867C111.067 426.267 99.6 415.067 88 409.733L80 406V366V326.133L109.6 355.6C132.133 377.867 140.4 385.2 143.467 385.733C151.067 387.2 156.667 384.4 168.933 373.067C229.867 317.067 311.333 289.467 392.8 297.467C456.133 303.6 514.667 329.733 561.733 373.067C568.8 379.6 575.333 384.4 578.133 385.2C587.867 387.867 589.467 386.667 636.133 341.067C679.467 298.667 682.667 295.067 682.667 286.667C682.667 278 680.933 276.8 566 205.733C505.2 168.133 439.2 127.467 419.6 115.2C388.8 96.1333 377.733 90.1333 374.667 90.8C374.267 90.9333 372.8 91.3333 371.333 91.6ZM505.333 210.4C576.133 254.267 634 290.667 634 291.467C634 292.267 622.4 304.133 608.4 317.867L582.667 342.933L570.4 333.067C521.733 293.867 468.8 271.333 405.333 262.533C387.333 260 339.2 260.267 320.933 263.067C258.533 272.533 208.267 294.4 160.267 333.067L147.733 343.067L119.6 314.933C104.133 299.467 91.7333 286.533 92 286.267C92.4 285.867 143.067 257.867 204.667 223.867C266.267 189.867 329.333 155.067 344.667 146.533C360.133 138 373.6 130.933 374.667 130.8C375.733 130.8 434.533 166.667 505.333 210.4ZM73.0667 442.533C84.4 448.267 88 456 88 474V486.667H62H36V474C36 456.267 40.6667 446.667 51.3333 441.867C57.2 439.333 67.3333 439.6 73.0667 442.533Z" fill="white"/>
<path d="M339.333 349.467C291.6 354.4 242.8 376.267 206.933 408.8C201.467 413.733 195.867 419.6 194.533 421.867C187.733 433.067 196.4 448 209.733 448C215.867 448 220.667 445.6 226 440C231.733 433.867 249.867 420 260.667 413.333C321.867 375.733 402.667 374.533 464.667 410.133C477.6 417.6 492.8 428.8 502.667 438.133C511.6 446.533 514.4 448 520.933 448C534.133 448 542.933 433.067 536.133 421.867C532.667 416.267 516.267 401.6 502 391.2C487.733 381.067 457.467 365.733 440.667 360.133C408.533 349.733 373.067 346 339.333 349.467Z" fill="white"/>
<path d="M343.467 437.467C331.867 439.2 316.8 443.6 305.067 448.667C286.533 456.667 261.2 475.2 256.667 484.133C252 492.933 256 505.2 264.667 508.8C273.733 512.533 278 510.933 292.933 498.267C302.933 489.6 323.733 478.8 336.667 475.333C350.4 471.733 373.2 471.333 388.533 474.4C405.467 478 425.2 487.467 437.733 498.267C452.8 511.067 457.333 512.667 466.267 508.4C474.933 504.267 478.667 492.933 474 484.133C469.733 475.733 444.8 457.2 427.333 449.333C402.133 438 370.533 433.467 343.467 437.467Z" fill="white"/>
<path d="M352.933 521.867C328.267 530.667 321.467 563.467 340.667 581.2C348.533 588.4 354.8 590.933 365.333 590.933C392.667 591.067 409.733 562.133 396.267 538.133C387.733 522.933 369.467 516 352.933 521.867Z" fill="white"/>
</g>
<defs>
<clipPath id="clip0_1909_598">
<rect width="682.667" height="682.667" fill="white"/>
</clipPath>
</defs>
</svg>
