<svg xmlns="http://www.w3.org/2000/svg" width="146" height="71" viewBox="0 0 146 71" fill="none">
<path d="M78.8184 0.0387717C78.7539 0.0570507 75.6836 1.80574 71.9922 3.92002C68.3008 6.04038 65.1426 7.85001 64.9727 7.9475C64.4043 8.26433 64.4336 8.08154 64.4336 11.4571L64.4277 14.4061L64.0234 14.6132C63.3086 14.9666 62.7285 15.7405 62.5645 16.5569C62.5293 16.7336 62.5 17.3795 62.5 17.9888C62.5 19.2439 62.5469 19.4206 62.916 19.6278C63.1035 19.7314 63.2676 19.7375 65.2949 19.7253L67.4688 19.707L67.627 19.5547C67.9258 19.2622 67.9492 19.1525 67.9492 18.0131C67.9492 16.758 67.9023 16.4411 67.627 15.8623C67.3809 15.3322 66.877 14.8204 66.3672 14.5767L66.0156 14.4061V12.5782V10.7564L67.3164 12.1029C68.3066 13.1205 68.6699 13.4556 68.8047 13.4799C69.1387 13.547 69.3848 13.419 69.9238 12.9011C72.6016 10.342 76.1816 9.0808 79.7617 9.44638C82.5449 9.72665 85.1172 10.9209 87.1855 12.9011C87.4961 13.1997 87.7832 13.419 87.9062 13.4556C88.334 13.5774 88.4043 13.5226 90.4551 11.4388C92.3594 9.50121 92.5 9.3367 92.5 8.95284C92.5 8.5568 92.4238 8.50196 87.373 5.25439C84.7012 3.53616 81.8008 1.67779 80.9395 1.11723C79.5859 0.245934 79.0996 -0.0282514 78.9648 0.00221361C78.9473 0.00830662 78.8828 0.0265856 78.8184 0.0387717ZM84.707 5.46764C87.8184 7.47224 90.3613 9.13563 90.3613 9.17219C90.3613 9.20875 89.8516 9.75103 89.2363 10.3786L88.1055 11.5241L87.5664 11.0732C85.4277 9.28186 83.1016 8.25215 80.3125 7.85001C79.5215 7.73424 77.4062 7.74643 76.6035 7.87438C73.8613 8.30698 71.6523 9.30624 69.543 11.0732L68.9922 11.5302L67.7559 10.2446C67.0762 9.53777 66.5312 8.94675 66.543 8.93456C66.5605 8.91628 68.7871 7.63675 71.4941 6.08304C74.2012 4.52932 76.9727 2.93904 77.6465 2.54909C78.3262 2.15914 78.918 1.83621 78.9648 1.83012C79.0117 1.83012 81.5957 3.46914 84.707 5.46764ZM65.7109 16.0756C66.209 16.3376 66.3672 16.691 66.3672 17.5135V18.0924H65.2246H64.082V17.5135C64.082 16.7031 64.2871 16.2645 64.7559 16.0451C65.0137 15.9293 65.459 15.9415 65.7109 16.0756Z" fill="black"/>
<path d="M77.405 11.8226C75.3074 12.0481 73.1629 13.0473 71.5867 14.534C71.3465 14.7594 71.1004 15.0275 71.0418 15.1311C70.7429 15.6429 71.1238 16.3253 71.7097 16.3253C71.9793 16.3253 72.1902 16.2157 72.4246 15.9598C72.6765 15.6795 73.4734 15.0458 73.948 14.7412C76.6375 13.0229 80.1883 12.9681 82.9129 14.5949C83.4812 14.9361 84.1492 15.448 84.5828 15.8745C84.9754 16.2583 85.0984 16.3253 85.3855 16.3253C85.9656 16.3253 86.3523 15.6429 86.0535 15.1311C85.9011 14.8752 85.1804 14.205 84.5535 13.7297C83.9265 13.2667 82.5965 12.566 81.8582 12.3101C80.4461 11.8348 78.8875 11.6642 77.405 11.8226Z" fill="black"/>
<path d="M77.6066 15.8441C77.0969 15.9233 76.4348 16.1243 75.9191 16.3559C75.1047 16.7215 73.9914 17.5684 73.7922 17.9766C73.5871 18.3788 73.7629 18.9393 74.1437 19.1038C74.5422 19.2744 74.7297 19.2013 75.3859 18.6225C75.8254 18.2264 76.7394 17.7329 77.3078 17.5745C77.9113 17.41 78.9133 17.3917 79.5871 17.5318C80.3312 17.6963 81.1984 18.1289 81.7492 18.6225C82.4113 19.2074 82.6105 19.2805 83.0031 19.0855C83.384 18.8967 83.548 18.3788 83.343 17.9766C83.1555 17.5928 82.0598 16.7458 81.2922 16.3863C80.1848 15.8684 78.7961 15.6613 77.6066 15.8441Z" fill="black"/>
<path d="M77.9905 19.7009C76.9065 20.1031 76.6077 21.6019 77.4514 22.4123C77.7971 22.7413 78.0725 22.8571 78.5354 22.8571C79.7366 22.8632 80.4866 21.541 79.8948 20.4443C79.5198 19.7497 78.717 19.4328 77.9905 19.7009Z" fill="black"/>
<path d="M32.896 25.536L27.04 48H20.416L16.832 33.216L13.12 48H6.496L0.8 25.536H6.656L9.888 41.888L13.888 25.536H19.904L23.744 41.888L27.008 25.536H32.896ZM52.4722 38.784C52.4722 39.296 52.4403 39.8293 52.3763 40.384H39.9923C40.0776 41.4933 40.4296 42.3467 41.0483 42.944C41.6883 43.52 42.4669 43.808 43.3843 43.808C44.7496 43.808 45.6989 43.232 46.2323 42.08H52.0563C51.7576 43.2533 51.2136 44.3093 50.4243 45.248C49.6563 46.1867 48.6856 46.9227 47.5123 47.456C46.3389 47.9893 45.0269 48.256 43.5763 48.256C41.8269 48.256 40.2696 47.8827 38.9043 47.136C37.5389 46.3893 36.4723 45.3227 35.7043 43.936C34.9363 42.5493 34.5523 40.928 34.5523 39.072C34.5523 37.216 34.9256 35.5947 35.6723 34.208C36.4403 32.8213 37.5069 31.7547 38.8723 31.008C40.2376 30.2613 41.8056 29.888 43.5763 29.888C45.3043 29.888 46.8403 30.2507 48.1843 30.976C49.5283 31.7013 50.5736 32.736 51.3203 34.08C52.0883 35.424 52.4722 36.992 52.4722 38.784ZM46.8723 37.344C46.8723 36.4053 46.5523 35.6587 45.9123 35.104C45.2723 34.5493 44.4723 34.272 43.5123 34.272C42.5949 34.272 41.8163 34.5387 41.1763 35.072C40.5576 35.6053 40.1736 36.3627 40.0243 37.344H46.8723Z" fill="black"/>
<path d="M60.831 43.776H67.999V48H55.359V25.536H60.831V43.776ZM87.441 38.784C87.441 39.296 87.409 39.8293 87.345 40.384H74.961C75.0463 41.4933 75.3983 42.3467 76.017 42.944C76.657 43.52 77.4357 43.808 78.353 43.808C79.7183 43.808 80.6677 43.232 81.201 42.08H87.025C86.7263 43.2533 86.1823 44.3093 85.393 45.248C84.625 46.1867 83.6543 46.9227 82.481 47.456C81.3077 47.9893 79.9957 48.256 78.545 48.256C76.7957 48.256 75.2383 47.8827 73.873 47.136C72.5077 46.3893 71.441 45.3227 70.673 43.936C69.905 42.5493 69.521 40.928 69.521 39.072C69.521 37.216 69.8943 35.5947 70.641 34.208C71.409 32.8213 72.4757 31.7547 73.841 31.008C75.2063 30.2613 76.7743 29.888 78.545 29.888C80.273 29.888 81.809 30.2507 83.153 30.976C84.497 31.7013 85.5423 32.736 86.289 34.08C87.057 35.424 87.441 36.992 87.441 38.784ZM81.841 37.344C81.841 36.4053 81.521 35.6587 80.881 35.104C80.241 34.5493 79.441 34.272 78.481 34.272C77.5637 34.272 76.785 34.5387 76.145 35.072C75.5263 35.6053 75.1423 36.3627 74.993 37.344H81.841ZM89.2398 39.04C89.2398 37.2053 89.5811 35.5947 90.2638 34.208C90.9678 32.8213 91.9171 31.7547 93.1118 31.008C94.3064 30.2613 95.6398 29.888 97.1118 29.888C98.3704 29.888 99.4691 30.144 100.408 30.656C101.368 31.168 102.104 31.84 102.616 32.672V30.144H108.088V48H102.616V45.472C102.082 46.304 101.336 46.976 100.376 47.488C99.4371 48 98.3384 48.256 97.0798 48.256C95.6291 48.256 94.3064 47.8827 93.1118 47.136C91.9171 46.368 90.9678 45.2907 90.2638 43.904C89.5811 42.496 89.2398 40.8747 89.2398 39.04ZM102.616 39.072C102.616 37.7067 102.232 36.6293 101.464 35.84C100.717 35.0507 99.7998 34.656 98.7118 34.656C97.6238 34.656 96.6958 35.0507 95.9278 35.84C95.1811 36.608 94.8078 37.6747 94.8078 39.04C94.8078 40.4053 95.1811 41.4933 95.9278 42.304C96.6958 43.0933 97.6238 43.488 98.7118 43.488C99.7998 43.488 100.717 43.0933 101.464 42.304C102.232 41.5147 102.616 40.4373 102.616 39.072ZM117.519 33.12C118.159 32.1387 118.959 31.3707 119.919 30.816C120.879 30.24 121.945 29.952 123.119 29.952V35.744H121.615C120.249 35.744 119.225 36.0427 118.543 36.64C117.86 37.216 117.519 38.24 117.519 39.712V48H112.047V30.144H117.519V33.12ZM136.614 29.952C138.705 29.952 140.369 30.6347 141.606 32C142.865 33.344 143.494 35.2 143.494 37.568V48H138.054V38.304C138.054 37.1093 137.745 36.1813 137.126 35.52C136.507 34.8587 135.675 34.528 134.63 34.528C133.585 34.528 132.753 34.8587 132.134 35.52C131.515 36.1813 131.206 37.1093 131.206 38.304V48H125.734V30.144H131.206V32.512C131.761 31.7227 132.507 31.104 133.446 30.656C134.385 30.1867 135.441 29.952 136.614 29.952Z" fill="#F48C06"/>
</svg>