<svg width="24" height="24" viewBox="0 0 24 24" fill="none" xmlns="http://www.w3.org/2000/svg">
<path d="M14.3517 2H9.65172C8.61172 2 7.76172 2.84 7.76172 3.88V4.82C7.76172 5.86 8.60172 6.7 9.64172 6.7H14.3517C15.3917 6.7 16.2317 5.86 16.2317 4.82V3.88C16.2417 2.84 15.3917 2 14.3517 2Z" fill="url(#paint0_linear_116_1112)"/>
<path d="M17.2391 4.81949C17.2391 6.40949 15.9391 7.70949 14.3491 7.70949H9.64906C8.05906 7.70949 6.75906 6.40949 6.75906 4.81949C6.75906 4.25949 6.15906 3.90949 5.65906 4.16949C4.24906 4.91949 3.28906 6.40949 3.28906 8.11949V17.5295C3.28906 19.9895 5.29906 21.9995 7.75906 21.9995H16.2391C18.6991 21.9995 20.7091 19.9895 20.7091 17.5295V8.11949C20.7091 6.40949 19.7491 4.91949 18.3391 4.16949C17.8391 3.90949 17.2391 4.25949 17.2391 4.81949ZM12.3791 16.9495H7.99906C7.58906 16.9495 7.24906 16.6095 7.24906 16.1995C7.24906 15.7895 7.58906 15.4495 7.99906 15.4495H12.3791C12.7891 15.4495 13.1291 15.7895 13.1291 16.1995C13.1291 16.6095 12.7891 16.9495 12.3791 16.9495ZM14.9991 12.9495H7.99906C7.58906 12.9495 7.24906 12.6095 7.24906 12.1995C7.24906 11.7895 7.58906 11.4495 7.99906 11.4495H14.9991C15.4091 11.4495 15.7491 11.7895 15.7491 12.1995C15.7491 12.6095 15.4091 12.9495 14.9991 12.9495Z" fill="url(#paint1_linear_116_1112)"/>
<defs>
<linearGradient id="paint0_linear_116_1112" x1="11.9968" y1="2" x2="11.9968" y2="6.7" gradientUnits="userSpaceOnUse">
<stop stop-color="#EE4600"/>
<stop offset="1" stop-color="#FF864A"/>
</linearGradient>
<linearGradient id="paint1_linear_116_1112" x1="11.9991" y1="4.08203" x2="11.9991" y2="21.9995" gradientUnits="userSpaceOnUse">
<stop stop-color="#EE4600"/>
<stop offset="1" stop-color="#FF864A"/>
</linearGradient>
</defs>
</svg>
