<svg width="24" height="20" viewBox="0 0 24 20" fill="none" xmlns="http://www.w3.org/2000/svg">
<path d="M20.4853 3.5519C18.2188 1.26145 15.2053 0 12 0C8.79469 0 5.78123 1.26145 3.51469 3.5519C1.24823 5.84245 0 8.88781 0 12.1271C0 14.5838 0.723797 16.9504 2.09311 18.9711L2.30255 19.2801H21.6975L21.9069 18.9711C23.2762 16.9504 24 14.5838 24 12.1271C24 8.88781 22.7518 5.84245 20.4853 3.5519ZM20.9485 17.859H3.05152C1.97405 16.1456 1.40625 14.1718 1.40625 12.1271C1.40625 6.22379 6.15858 1.42114 12 1.42114C17.8414 1.42114 22.5938 6.22379 22.5938 12.1271C22.5938 14.1718 22.026 16.1456 20.9485 17.859Z" fill="black"/>
<path d="M12.7031 2.8418H11.2969V5.68408H12.7031V2.8418Z" fill="black"/>
<path d="M8.01465 3.73184L6.79688 4.44238L8.2031 6.90376L9.42087 6.19321L8.01465 3.73184Z" fill="black"/>
<path d="M4.39451 6.86894L3.69141 8.09961L6.12699 9.52073L6.83009 8.29006L4.39451 6.86894Z" fill="black"/>
<path d="M5.625 11.416H2.8125V12.8372H5.625V11.416Z" fill="black"/>
<path d="M6.12699 14.7322L3.69141 16.1533L4.39451 17.384L6.83009 15.9629L6.12699 14.7322Z" fill="black"/>
<path d="M17.8711 14.7332L17.168 15.9639L19.6036 17.385L20.3067 16.1543L17.8711 14.7332Z" fill="black"/>
<path d="M21.1875 11.416H18.375V12.8372H21.1875V11.416Z" fill="black"/>
<path d="M20.3082 8.09985L19.605 6.86914L13.3694 10.5075C13.0005 10.1885 12.5223 9.99518 12 9.99518C10.8369 9.99518 9.89062 10.9515 9.89062 12.1269C9.89062 13.3023 10.8369 14.2586 12 14.2586C13.1631 14.2586 14.1094 13.3023 14.1094 12.1269C14.1094 11.9939 14.0967 11.8639 14.0735 11.7376L20.3082 8.09985ZM12 12.8375C11.6123 12.8375 11.2969 12.5187 11.2969 12.1269C11.2969 11.7351 11.6123 11.4163 12 11.4163C12.3877 11.4163 12.7031 11.7351 12.7031 12.1269C12.7031 12.5187 12.3877 12.8375 12 12.8375Z" fill="black"/>
<path d="M15.9844 3.73003L14.5781 6.19141L15.7959 6.90195L17.2021 4.44058L15.9844 3.73003Z" fill="black"/>
</svg>
