<?xml version="1.0" standalone="no"?>
<!DOCTYPE svg PUBLIC "-//W3C//DTD SVG 20010904//EN"
 "http://www.w3.org/TR/2001/REC-SVG-20010904/DTD/svg10.dtd">
<svg version="1.0" xmlns="http://www.w3.org/2000/svg"
 width="552.000000pt" height="551.000000pt" viewBox="0 0 552.000000 551.000000"
 preserveAspectRatio="xMidYMid meet">

<g transform="translate(0.000000,551.000000) scale(0.100000,-0.100000)"
fill="#000000" stroke="none">
<path d="M2475 5489 c-869 -100 -1625 -586 -2071 -1333 -254 -424 -384 -901
-384 -1406 0 -526 138 -1011 413 -1455 286 -460 734 -849 1226 -1065 563 -247
1198 -298 1799 -145 672 170 1278 615 1649 1210 373 598 500 1319 358 2023
-110 542 -425 1091 -838 1463 -446 401 -960 636 -1542 704 -139 16 -486 19
-610 4z m560 -219 c948 -105 1758 -727 2099 -1613 199 -514 221 -1089 64
-1627 -192 -655 -671 -1228 -1286 -1538 -369 -186 -730 -272 -1147 -272 -403
0 -758 84 -1125 266 -246 123 -444 265 -649 467 -352 348 -586 770 -695 1257
-106 475 -63 1011 116 1465 345 871 1149 1488 2078 1594 107 12 439 13 545 1z"/>
<path d="M2572 4445 c-227 -42 -419 -143 -583 -306 -138 -138 -233 -306 -286
-508 -22 -83 -26 -117 -26 -251 0 -170 11 -239 62 -380 84 -229 236 -414 460
-560 23 -16 23 -16 -50 -44 -398 -155 -738 -463 -927 -841 -46 -92 -82 -186
-82 -212 0 -57 56 -113 112 -113 49 0 84 34 118 117 198 482 628 831 1130 917
207 35 406 29 607 -19 488 -117 879 -465 1053 -940 40 -106 63 -135 116 -142
30 -4 47 1 73 19 66 44 64 97 -10 273 -85 204 -190 363 -349 528 -178 186
-379 320 -617 412 -40 16 -73 31 -72 34 0 3 32 26 70 51 223 143 402 417 455
696 23 124 15 356 -16 469 -54 199 -139 345 -284 491 -137 136 -259 214 -426
269 -161 53 -369 69 -528 40z m318 -215 c330 -52 595 -285 700 -615 30 -94 39
-308 17 -410 -73 -345 -341 -611 -686 -681 -99 -20 -281 -15 -371 9 -295 81
-510 278 -608 559 -92 260 -53 541 107 778 46 67 158 176 232 226 175 116 402
166 609 134z"/>
</g>
</svg>
