<svg width="152" height="41" viewBox="0 0 152 41" fill="none" xmlns="http://www.w3.org/2000/svg">
<g clip-path="url(#clip0_1228_556)">
<path d="M143.28 19.521L151.376 40.8139C148.99 40.4754 146.605 40.0514 144.177 39.6694L139.617 27.9042L134.931 38.6982C132.631 38.3162 130.372 38.1889 128.072 37.8923L136.294 19.2679L128.836 0.178711H135.739L139.914 10.8441L144.389 0.178711H151.375L143.28 19.521ZM123.386 0.178711H117.122V37.089C119.167 37.2164 121.297 37.3003 123.386 37.5536V0.178711ZM111.711 36.6652C106.002 36.2845 100.292 35.9473 94.4558 35.8186V0.178874H100.846V29.8085C104.511 29.8926 108.174 30.1879 111.711 30.3572V36.6652ZM87.6375 14.6137V20.9622H78.9037V35.3959H72.5994V0.178711H90.4938V6.52727H78.905V14.6138H87.6388L87.6375 14.6137ZM61.8612 6.52727V35.7345C59.7303 35.7345 57.5585 35.7345 55.4697 35.8186V6.52727H48.8656V0.178711H68.5062V6.52727H61.8612ZM41.9641 21.2996C39.1527 21.2996 35.8287 21.2996 33.4428 21.4283V30.8664C37.1921 30.6118 40.9414 30.3165 44.7329 30.1892V36.2845L27.0526 37.6823V0.178711H44.7317V6.52727H33.4426V15.0782C35.9145 15.0782 39.7061 14.951 41.9638 14.951V21.3009L41.9641 21.2996ZM6.55665 17.7439V39.924C4.25798 40.1786 2.21148 40.4753 0.0395508 40.8139V0.178711H6.13264L14.44 23.2489V0.178711H20.8315V38.1889C18.5736 38.5709 16.2723 38.6982 13.8441 39.0355L6.55665 17.7439Z" fill="#CFCFDE"/>
</g>
<defs>
<clipPath id="clip0_1228_556">
<rect width="151.336" height="40.7149" fill="white" transform="translate(0.0395508 0.138184)"/>
</clipPath>
</defs>
</svg>
