<svg width="18" height="18" viewBox="0 0 18 18" fill="none" xmlns="http://www.w3.org/2000/svg">
<path d="M9.01686 15.397C7.26936 15.397 5.52185 15.1195 3.86435 14.5645C3.23435 14.347 2.75435 13.9045 2.54435 13.327C2.32685 12.7495 2.40185 12.112 2.74685 11.542L3.60935 10.1095C3.78935 9.80945 3.95436 9.20945 3.95436 8.85695V6.68945C3.95436 3.89945 6.22686 1.62695 9.01686 1.62695C11.8069 1.62695 14.0794 3.89945 14.0794 6.68945V8.85695C14.0794 9.20195 14.2444 9.80945 14.4244 10.117L15.2794 11.542C15.6019 12.082 15.6619 12.7345 15.4444 13.327C15.2269 13.9195 14.7544 14.3695 14.1619 14.5645C12.5119 15.1195 10.7644 15.397 9.01686 15.397ZM9.01686 2.75195C6.84936 2.75195 5.07936 4.51445 5.07936 6.68945V8.85695C5.07936 9.40445 4.85435 10.2145 4.57685 10.687L3.71435 12.1195C3.54935 12.397 3.50435 12.6895 3.60186 12.937C3.69185 13.192 3.91686 13.387 4.22435 13.492C7.35935 14.542 10.6819 14.542 13.8169 13.492C14.0869 13.402 14.2969 13.1995 14.3944 12.9295C14.4919 12.6595 14.4694 12.367 14.3194 12.1195L13.4569 10.687C13.1719 10.1995 12.9544 9.39695 12.9544 8.84945V6.68945C12.9544 4.51445 11.1919 2.75195 9.01686 2.75195Z" fill="white"/>
<path d="M10.4114 2.95477C10.3589 2.95477 10.3064 2.94727 10.2539 2.93227C10.0364 2.87227 9.82643 2.82727 9.62393 2.79727C8.98643 2.71477 8.37143 2.75977 7.79393 2.93227C7.58393 2.99977 7.35893 2.93227 7.21643 2.77477C7.07393 2.61727 7.02893 2.39227 7.11143 2.18977C7.41893 1.40227 8.16893 0.884766 9.02393 0.884766C9.87893 0.884766 10.6289 1.39477 10.9364 2.18977C11.0114 2.39227 10.9739 2.61727 10.8314 2.77477C10.7189 2.89477 10.5614 2.95477 10.4114 2.95477Z" fill="white"/>
<path d="M9.01562 17.1074C8.27312 17.1074 7.55312 16.8074 7.02812 16.2824C6.50312 15.7574 6.20312 15.0374 6.20312 14.2949H7.32812C7.32812 14.7374 7.50812 15.1724 7.82312 15.4874C8.13812 15.8024 8.57313 15.9824 9.01562 15.9824C9.94563 15.9824 10.7031 15.2249 10.7031 14.2949H11.8281C11.8281 15.8474 10.5681 17.1074 9.01562 17.1074Z" fill="white"/>
</svg>
