<?xml version="1.0" standalone="no"?>
<!DOCTYPE svg PUBLIC "-//W3C//DTD SVG 20010904//EN"
 "http://www.w3.org/TR/2001/REC-SVG-20010904/DTD/svg10.dtd">
<svg version="1.0" xmlns="http://www.w3.org/2000/svg"
 width="512.000000pt" height="512.000000pt" viewBox="0 0 512.000000 512.000000"
 preserveAspectRatio="xMidYMid meet">

<g transform="translate(0.000000,512.000000) scale(0.100000,-0.100000)"
fill="#000000" stroke="none">
<path d="M600 2560 l0 -2560 1960 0 1960 0 0 2560 0 2560 -1960 0 -1960 0 0
-2560z m1292 1949 c126 -26 245 -112 308 -222 56 -99 62 -153 57 -558 -2 -200
-8 -376 -12 -391 l-7 -28 161 0 161 0 0 -151 0 -150 -422 3 c-419 3 -424 4
-483 27 -119 47 -205 127 -258 239 l-32 67 0 421 0 420 37 75 c91 184 297 288
490 248z m1499 1 c140 -26 270 -127 333 -260 l31 -65 3 -587 3 -588 -151 0
-150 0 0 225 0 225 -150 0 -150 0 0 -225 0 -225 -150 0 -150 0 0 548 c0 596 3
624 57 725 57 104 176 194 296 223 66 16 110 17 178 4z m-1881 -1950 l0 -150
-155 0 -155 0 0 150 0 150 155 0 155 0 0 -150z m2410 0 l0 -150 -1055 0 -1055
0 0 150 0 150 1055 0 1055 0 0 -150z m-2412 -602 l3 -148 -156 0 -155 0 0 143
c0 79 3 147 7 151 4 3 72 5 152 4 l146 -3 3 -147z m1802 2 l0 -150 -750 0
-750 0 0 150 0 150 750 0 750 0 0 -150z m-1805 -605 l0 -150 -150 0 -150 0 -3
140 c-1 76 0 145 2 152 4 11 38 13 153 11 l148 -3 0 -150z m2410 0 l0 -150
-1052 -3 -1053 -2 0 155 0 155 1053 -2 1052 -3 0 -150z m-2407 -602 l-3 -148
-150 0 -150 0 -3 148 -3 147 156 0 156 0 -3 -147z m1802 -3 l0 -150 -750 0
-750 0 0 150 0 150 750 0 750 0 0 -150z"/>
<path d="M1768 4210 c-37 -11 -68 -34 -89 -67 -17 -26 -19 -54 -19 -377 0
-333 1 -350 20 -382 29 -46 98 -78 151 -69 58 10 115 69 124 127 3 24 5 185 3
358 -3 314 -3 315 -27 349 -23 32 -90 71 -121 70 -8 0 -27 -4 -42 -9z"/>
<path d="M3254 4201 c-23 -10 -52 -34 -65 -52 -23 -33 -24 -40 -24 -209 l0
-175 148 -3 147 -3 0 177 c0 150 -3 180 -17 206 -38 64 -122 90 -189 59z"/>
</g>
</svg>
