<svg width="16" height="16" viewBox="0 0 16 16" fill="none" xmlns="http://www.w3.org/2000/svg">
<path d="M7.66536 14.5007C3.8987 14.5007 0.832031 11.434 0.832031 7.66732C0.832031 3.90065 3.8987 0.833984 7.66536 0.833984C11.432 0.833984 14.4987 3.90065 14.4987 7.66732C14.4987 11.434 11.432 14.5007 7.66536 14.5007ZM7.66536 1.83398C4.44536 1.83398 1.83203 4.45398 1.83203 7.66732C1.83203 10.8807 4.44536 13.5007 7.66536 13.5007C10.8854 13.5007 13.4987 10.8807 13.4987 7.66732C13.4987 4.45398 10.8854 1.83398 7.66536 1.83398Z" fill="white"/>
<path d="M14.6676 15.1676C14.5409 15.1676 14.4143 15.1209 14.3143 15.0209L12.9809 13.6876C12.7876 13.4943 12.7876 13.1743 12.9809 12.9809C13.1743 12.7876 13.4943 12.7876 13.6876 12.9809L15.0209 14.3143C15.2143 14.5076 15.2143 14.8276 15.0209 15.0209C14.9209 15.1209 14.7943 15.1676 14.6676 15.1676Z" fill="white"/>
</svg>
