<svg width="24" height="24" viewBox="0 0 24 24" fill="none" xmlns="http://www.w3.org/2000/svg">
<path d="M7.1698 22.7496C4.7898 22.7496 2.83984 21.0196 2.83984 18.8896V16.8496C2.83984 16.4396 3.17984 16.0996 3.58984 16.0996C3.99984 16.0996 4.33984 16.4396 4.33984 16.8496C4.33984 18.0996 5.5498 19.0396 7.1698 19.0396C8.7898 19.0396 9.99982 18.0996 9.99982 16.8496C9.99982 16.4396 10.3398 16.0996 10.7498 16.0996C11.1598 16.0996 11.4998 16.4396 11.4998 16.8496V18.8896C11.4998 21.0196 9.5598 22.7496 7.1698 22.7496ZM4.59979 19.8696C5.03979 20.6896 6.0298 21.2496 7.1698 21.2496C8.3098 21.2496 9.29981 20.6796 9.73981 19.8696C9.02981 20.2996 8.1498 20.5496 7.1698 20.5496C6.1898 20.5496 5.30979 20.2996 4.59979 19.8696Z" fill="black"/>
<path d="M7.1698 17.7994C5.5298 17.7994 4.05983 17.0494 3.32983 15.8594C3.00983 15.3394 2.83984 14.7294 2.83984 14.1094C2.83984 13.0594 3.29983 12.0794 4.13983 11.3494C5.75983 9.92943 8.54981 9.92948 10.1798 11.3395C11.0198 12.0795 11.4898 13.0594 11.4898 14.1094C11.4898 14.7294 11.3198 15.3394 10.9998 15.8594C10.2798 17.0494 8.8098 17.7994 7.1698 17.7994ZM7.1698 11.7495C6.3898 11.7495 5.66982 12.0094 5.12982 12.4794C4.61982 12.9194 4.33984 13.4994 4.33984 14.1094C4.33984 14.4594 4.4298 14.7795 4.6098 15.0795C5.0698 15.8395 6.0498 16.3095 7.1698 16.3095C8.2898 16.3095 9.26979 15.8395 9.71979 15.0895C9.89979 14.7995 9.98981 14.4695 9.98981 14.1195C9.98981 13.5095 9.70983 12.9294 9.19983 12.4794C8.66983 12.0094 7.9498 11.7495 7.1698 11.7495Z" fill="black"/>
<path d="M7.1698 20.55C4.6998 20.55 2.83984 18.96 2.83984 16.86V14.11C2.83984 11.98 4.7798 10.25 7.1698 10.25C8.2998 10.25 9.37982 10.64 10.1898 11.34C11.0298 12.08 11.4998 13.06 11.4998 14.11V16.86C11.4998 18.96 9.6398 20.55 7.1698 20.55ZM7.1698 11.75C5.6098 11.75 4.33984 12.81 4.33984 14.11V16.86C4.33984 18.11 5.5498 19.05 7.1698 19.05C8.7898 19.05 9.99982 18.11 9.99982 16.86V14.11C9.99982 13.5 9.71984 12.92 9.20984 12.47C8.66984 12.01 7.9498 11.75 7.1698 11.75Z" fill="black"/>
<path d="M19.0399 14.8002C17.5299 14.8002 16.2499 13.6802 16.1299 12.2402C16.0499 11.4102 16.3499 10.6002 16.9499 10.0102C17.4499 9.49019 18.1599 9.2002 18.9099 9.2002H20.9999C21.9899 9.2302 22.7499 10.0102 22.7499 10.9702V13.0302C22.7499 13.9902 21.9899 14.7702 21.0299 14.8002H19.0399ZM20.9699 10.7002H18.9199C18.5699 10.7002 18.2499 10.8302 18.0199 11.0702C17.7299 11.3502 17.5899 11.7302 17.6299 12.1102C17.6799 12.7702 18.3199 13.3002 19.0399 13.3002H20.9999C21.1299 13.3002 21.2499 13.1802 21.2499 13.0302V10.9702C21.2499 10.8202 21.1299 10.7102 20.9699 10.7002Z" fill="black"/>
<path d="M16.0022 21.25H13.5022C13.0922 21.25 12.7522 20.91 12.7522 20.5C12.7522 20.09 13.0922 19.75 13.5022 19.75H16.0022C18.5822 19.75 20.2522 18.08 20.2522 15.5V14.8H19.0422C17.5322 14.8 16.2522 13.68 16.1322 12.24C16.0522 11.41 16.3522 10.6 16.9522 10.01C17.4522 9.49001 18.1622 9.20001 18.9122 9.20001H20.2422V8.5C20.2422 6.16 18.8722 4.54998 16.6522 4.28998C16.4122 4.24998 16.2022 4.25 15.9922 4.25H6.99219C6.75219 4.25 6.52218 4.26999 6.29218 4.29999C4.09218 4.57999 2.74219 6.18 2.74219 8.5V10.5C2.74219 10.91 2.40219 11.25 1.99219 11.25C1.58219 11.25 1.24219 10.91 1.24219 10.5V8.5C1.24219 5.42 3.14222 3.19001 6.09222 2.82001C6.36222 2.78001 6.67219 2.75 6.99219 2.75H15.9922C16.2322 2.75 16.5422 2.76 16.8622 2.81C19.8122 3.15 21.7422 5.39 21.7422 8.5V9.95001C21.7422 10.36 21.4022 10.7 20.9922 10.7H18.9122C18.5622 10.7 18.2422 10.83 18.0122 11.07C17.7222 11.35 17.5822 11.73 17.6222 12.11C17.6722 12.77 18.3122 13.3 19.0322 13.3H21.0022C21.4122 13.3 21.7522 13.64 21.7522 14.05V15.5C21.7522 18.94 19.4422 21.25 16.0022 21.25Z" fill="black"/>
</svg>
