<svg width="28" height="34" viewBox="0 0 28 34" fill="none" xmlns="http://www.w3.org/2000/svg">
<path d="M26.118 5.288H24.118V1.2C24.1075 0.885071 23.9778 0.585898 23.7549 0.363086C23.5321 0.140274 23.233 0.0104813 22.918 0L3.92303 0C2.903 0 1.92476 0.405202 1.2035 1.12647C0.48223 1.84773 0.0770264 2.82598 0.0770264 3.846V29.246C0.0770264 29.7511 0.176506 30.2512 0.369785 30.7178C0.563065 31.1844 0.846361 31.6084 1.2035 31.9655C1.56063 32.3227 1.98461 32.606 2.45123 32.7992C2.91784 32.9925 3.41796 33.092 3.92303 33.092H26.118C26.4363 33.092 26.7415 32.9656 26.9666 32.7405C27.1916 32.5155 27.318 32.2103 27.318 31.892V6.49C27.3183 6.33225 27.2874 6.17599 27.2273 6.03017C27.1671 5.88434 27.0787 5.75182 26.9673 5.64018C26.8558 5.52854 26.7234 5.43997 26.5777 5.37954C26.432 5.31911 26.2758 5.288 26.118 5.288V5.288ZM14.018 18.068L11.134 15.7C10.9405 15.5834 10.7189 15.5218 10.493 15.5218C10.2671 15.5218 10.0455 15.5834 9.85203 15.7L6.96703 18.064V7.692H14.018V18.068ZM21.711 5.288H3.92303C3.54045 5.288 3.17355 5.13602 2.90303 4.8655C2.63251 4.59498 2.48053 4.22807 2.48053 3.8455C2.48053 3.46293 2.63251 3.09602 2.90303 2.8255C3.17355 2.55498 3.54045 2.403 3.92303 2.403H21.711V5.288Z" fill="#F48C06"/>
</svg>
